<svg width="42" height="98" viewBox="0 0 42 98" fill="none" xmlns="http://www.w3.org/2000/svg">
<path d="M20.4761 56.0278C20.6205 57.7282 19.4663 66.7285 18.8707 70.2576C18.5871 71.9295 17.8096 74.6535 18.0894 76.0998C18.4888 78.1156 18.6042 80.7242 18.3843 82.2431C18.2456 83.1655 17.8091 87.4199 18.4337 88.9759C18.7605 89.7919 19.3595 93.9736 19.3595 93.9736C20.9198 97.9131 20.0391 97.7193 20.0391 97.7193C19.5561 98.3121 18.7287 97.7658 18.7287 97.7658C18.0984 98.1677 17.6619 97.6704 17.6619 97.6704C17.1209 98.1183 16.4901 97.6153 16.4901 97.6153C15.8104 97.9682 15.1801 97.3175 15.1801 97.3175C14.7897 97.5141 14.6942 97.2657 14.6942 97.2657C13.5229 97.1906 15.3478 93.4421 15.3478 93.4421C15.7848 90.0755 14.9141 88.2017 14.9141 88.2017C12.0624 79.7448 11.9175 77.5005 13.0575 74.3134C13.3785 73.3934 13.4598 73.0291 13.3121 72.6296C12.9705 71.7077 13.2194 67.9995 12.8029 66.5271C11.9992 63.6872 11.2065 56.4852 10.7932 53.1247C10.238 48.5982 12.7601 42.5289 12.7601 42.5289C13.3125 40.059 12.5027 31.2591 12.5027 31.2591C11.3718 33.0189 11.415 36.1253 11.415 36.1253C11.5945 39.3831 8.78315 44.3623 8.78315 44.3623C7.43232 46.4199 6.92076 48.3721 6.92076 48.5169C6.92076 49.1097 7.05043 50.5446 7.05043 50.5446L6.99866 51.7943C6.97539 52.1125 6.79632 53.2083 6.82529 53.7379C7.03618 56.9972 6.51846 56.384 6.51846 56.384C6.08148 56.384 5.60128 53.7612 5.60128 53.7612C5.60128 54.4375 5.76657 56.4624 5.40179 57.2261C4.96529 58.1371 4.64421 57.0699 4.63851 56.8556C4.52309 52.7058 4.27372 53.793 4.27372 53.793C4.03101 57.1596 3.73272 57.9201 3.1979 57.6569C2.79274 57.4636 3.16323 53.6168 3.16323 53.6168C2.46929 55.9019 1.94301 56.2657 1.94301 56.2657C0.797844 57.0698 1.50603 54.8489 1.66515 54.409C2.51251 52.0721 2.53863 51.2623 2.53863 51.2623C1.47991 53.3622 0.68195 53.2843 0.68195 53.2843C-0.350647 52.9547 1.58441 49.9813 2.71818 48.5568C3.2967 47.8311 4.04288 46.8593 4.25947 46.2822C4.61238 45.3047 4.87884 42.1622 4.87884 42.1622C4.98571 38.4541 5.90242 36.8435 5.90242 36.8435C7.46984 34.3346 7.7648 29.6547 7.7648 29.6547L7.83415 21.7534C8.38369 16.3639 12.355 16.3249 12.355 16.3249C16.369 15.7274 16.9276 14.4307 16.9276 14.4307C17.7778 13.2072 17.2919 10.8618 17.2919 10.8618C16.5865 10.288 16.3144 8.76474 16.3144 8.76474C15.1431 7.86656 15.2006 6.5523 15.7416 6.56655C16.1757 6.57795 16.0774 6.21839 16.0774 6.21839C15.3449 0.302085 20.5972 0 20.5972 0H21.399C21.399 0 26.6537 0.302085 25.9222 6.21697C25.9222 6.21697 25.8239 6.577 26.2618 6.56512C26.8014 6.55088 26.8517 7.86514 25.6847 8.76332C25.6847 8.76332 25.413 10.2861 24.7072 10.8603C24.7072 10.8603 24.2213 13.2058 25.0715 14.4293C25.0715 14.4293 25.6282 15.726 29.6441 16.3235C29.6441 16.3235 33.622 16.3625 34.163 21.752L34.2381 29.6533C34.2381 29.6533 34.5273 34.3332 36.1009 36.842C36.1009 36.842 37.0134 38.4531 37.1188 42.1608C37.1188 42.1608 37.3862 45.3033 37.7377 46.2808C37.9519 46.855 38.6976 47.8268 39.2809 48.5554C40.4247 49.977 42.3469 52.9442 41.3186 53.2829C41.3186 53.2829 40.5163 53.3608 39.4619 51.2609C39.4619 51.2609 39.4837 52.065 40.3297 54.4076C40.4959 54.8417 41.2031 57.0627 40.0575 56.2643C40.0575 56.2643 39.527 55.9 38.8373 53.6153C38.8373 53.6153 39.2073 57.4622 38.7955 57.6555C38.2573 57.9191 37.9638 57.1582 37.7211 53.7916C37.7211 53.7916 37.4722 52.7043 37.3568 56.8542C37.3511 57.0684 37.0371 58.1357 36.5987 57.2247C36.2287 56.4609 36.395 54.4394 36.395 53.7597C36.395 53.7597 35.9205 56.3826 35.4768 56.3826C35.4768 56.3826 34.9548 56.9958 35.169 53.7365C35.2037 53.204 35.0171 52.1111 34.9938 51.7929L34.9434 50.5432C34.9434 50.5432 35.0736 49.1116 35.0736 48.5155C35.0736 48.3678 34.5615 46.4185 33.2112 44.3609C33.2112 44.3609 30.4027 39.3793 30.5836 36.1239C30.5836 36.1239 30.6226 33.0175 29.4917 31.2577C29.4917 31.2577 28.6889 40.0571 29.2328 42.5275C29.2328 42.5275 31.7592 48.5967 31.202 53.1233C30.7917 56.4928 30.0004 63.6853 29.1948 66.5257C28.774 67.9953 29.0228 71.7024 28.6856 72.6282C28.5336 73.0305 28.6134 73.401 28.9402 74.312C30.074 77.4991 29.9296 79.7438 27.0778 88.2003C27.0778 88.2003 26.2001 90.0741 26.6437 93.4407C26.6437 93.4407 28.4657 97.1892 27.2987 97.2643C27.2987 97.2643 27.2075 97.5127 26.8128 97.316C26.8128 97.316 26.1825 97.9668 25.5014 97.6138C25.5014 97.6138 24.8706 98.1173 24.3315 97.6689C24.3315 97.6689 23.8993 98.1662 23.269 97.7644C23.269 97.7644 22.4416 98.3225 21.95 97.7179C21.95 97.7179 21.0765 97.9117 22.6316 93.9722C22.6316 93.9722 23.2272 89.7957 23.5554 88.9745C24.1814 87.4189 23.7392 83.1556 23.6057 82.2417C23.3906 80.7142 23.506 78.1118 23.8993 76.0984C24.1871 74.6554 23.4077 71.9309 23.1198 70.2561C22.5285 66.7304 21.3696 57.7296 21.5144 56.0263L21.0356 56.1945C20.6927 56.1954 20.4761 56.0278 20.4761 56.0278Z" fill="#F4F4F4"/>
</svg>
